<svg width="462" height="258" viewBox="0 0 462 258" fill="none" xmlns="http://www.w3.org/2000/svg">
<mask id="mask0_888_32206" style="mask-type:alpha" maskUnits="userSpaceOnUse" x="0" y="-1" width="462" height="259">
<rect y="-0.000488281" width="462" height="258" fill="#D9D9D9"/>
</mask>
<g mask="url(#mask0_888_32206)">
<path d="M448.659 109.045C400.086 113.918 352.768 122.365 307.635 137.561C190.786 176.925 83.4613 250.081 -41.0473 259.817C-34.7612 241.693 -28.5865 223.187 -22.5007 204.362C-39.0045 190.296 -55.6242 175.9 -72.3693 161.147C-16.1837 152.922 39.055 141.704 91.4595 121.494C198.722 80.1219 299.991 19.9739 415.042 3.14974C408.286 21.3455 401.637 39.9463 395.128 58.9101C412.096 72.8542 431.467 94.3659 448.672 109.05L448.659 109.045Z" fill="white" stroke="black" stroke-width="5" stroke-miterlimit="10"/>
<mask id="path-3-inside-1_888_32206" fill="white">
<path d="M43.3848 146.847C46.2071 146.342 49.0288 145.807 51.8251 145.229C55.0543 150.475 58.2829 155.69 61.5023 160.908C60.8242 155.12 60.1553 149.328 59.4707 143.521C62.9419 142.694 66.4277 141.82 69.8568 140.874C70.7532 152.026 71.6524 163.157 72.5196 174.227C69.2813 175.013 65.996 175.753 62.722 176.439C59.3316 171.116 55.9536 165.799 52.5567 160.458C53.1103 166.332 53.6639 172.206 54.2202 178.058C50.9105 178.643 47.5657 179.157 44.2107 179.614C37.6476 169.613 31.0559 159.56 24.4788 149.461C28.2011 149.081 31.9158 148.62 35.583 148.084C38.8316 153.385 42.0711 158.689 45.3013 163.996C44.6708 158.284 44.0402 152.571 43.3939 146.844L43.3848 146.847ZM79.537 164.425C77.3252 162.343 75.6882 159.759 74.5955 156.673C73.5028 153.588 73.2028 150.643 73.6831 147.835C74.1634 145.027 75.3881 142.574 77.3017 140.464C79.2492 138.362 81.7509 136.806 84.8289 135.83C87.9097 134.832 90.8724 134.607 93.757 135.152C96.6416 135.697 99.152 136.962 101.322 138.924C103.491 140.887 105.112 143.425 106.198 146.493C107.285 149.56 107.611 152.578 107.176 155.514C106.741 158.45 105.561 161.032 103.684 163.243C101.778 165.463 99.2991 167.083 96.2276 168.078C93.1469 169.076 90.155 169.218 87.2282 168.555C84.3014 167.891 81.7488 166.507 79.537 164.425ZM96.679 156.16C97.2411 154.456 97.102 152.403 96.2622 150.032C95.4223 147.66 94.232 145.959 92.7377 144.942C91.2158 143.935 89.5883 143.708 87.8401 144.275C86.0952 144.852 84.9379 145.952 84.3758 147.656C83.804 149.332 83.9399 151.376 84.7862 153.766C85.6325 156.156 86.8163 157.839 88.3269 158.901C89.8553 159.926 91.4925 160.181 93.2374 159.605C94.9823 159.028 96.1267 157.891 96.6888 156.187L96.6823 156.169L96.679 156.16ZM120.802 147.69L124.194 157.268C120.953 158.57 117.714 159.851 114.429 161.087C110.749 150.693 107.087 140.294 103.418 129.876C108.12 128.097 112.806 126.243 117.449 124.299C121.413 122.649 124.828 122.274 127.738 123.212C130.642 124.131 132.689 126.302 133.892 129.699C134.638 131.805 134.814 133.876 134.409 135.906C134.003 137.935 133.069 139.781 131.596 141.446C135.123 144.185 138.644 146.906 142.138 149.636C138.479 151.272 134.797 152.844 131.108 154.397C128.201 151.954 125.275 149.517 122.362 147.055C121.846 147.259 121.321 147.465 120.815 147.696L120.797 147.702L120.802 147.69ZM118.095 140.044C119.346 139.529 120.6 139.023 121.851 138.508C123.084 137.999 123.89 137.363 124.313 136.605C124.736 135.848 124.785 135.026 124.467 134.129C124.149 133.232 123.588 132.606 122.805 132.347C122.041 132.082 121.028 132.193 119.792 132.693C118.541 133.208 117.287 133.714 116.036 134.229L118.095 140.044ZM144.132 148.745C140.452 138.351 136.79 127.952 133.122 117.534C136.321 116.112 139.494 114.649 142.699 113.184C145.406 120.83 148.114 128.476 150.8 136.12C154.94 134.211 159.091 132.246 163.208 130.273L166.133 138.532C158.852 142.028 151.527 145.456 144.169 148.732L144.132 148.745ZM168.851 137.209C165.171 126.816 161.502 116.398 157.84 105.998C161.708 104.134 165.568 102.252 169.423 100.351C174.316 97.9485 178.636 97.4494 182.397 98.869C186.15 100.292 188.891 103.402 190.572 108.207C192.271 113.005 192.218 117.486 190.425 121.655C188.651 125.818 185.317 129.132 180.405 131.541C176.551 133.442 172.69 135.324 168.823 137.188L168.848 137.2L168.851 137.209ZM175.202 124.449C175.982 124.059 176.75 123.695 177.533 123.314C179.596 122.295 180.929 120.875 181.535 119.033C182.144 117.199 182.041 115.133 181.237 112.862C180.433 110.591 179.261 109.058 177.728 108.282C176.195 107.506 174.402 107.626 172.332 108.626C171.553 109.016 170.784 109.381 170.001 109.761L175.202 124.449ZM194.185 89.8104C194.518 93.9276 194.356 99.4676 193.899 102.051C193.155 102.541 192.407 103.022 191.681 103.506C191.684 100.486 191.177 95.4408 190.525 92.0854C191.738 91.3466 192.95 90.5772 194.191 89.8287L194.185 89.8104ZM203.671 115.347C204.34 112.111 205.016 108.894 205.67 105.674C207.435 106.347 209.254 106.62 211.117 106.496C212.981 106.372 214.679 105.925 216.212 105.187C217.27 104.678 218.05 104.114 218.53 103.49C219.005 102.879 219.147 102.262 218.923 101.63C218.7 100.998 218.218 100.715 217.456 100.779C216.695 100.842 215.183 101.202 212.883 101.842C212.354 102.008 211.962 102.096 211.662 102.181C210.641 102.471 209.692 102.704 208.843 102.839C207.979 102.991 207.054 103.03 206.038 102.957C205.032 102.911 204.137 102.713 203.362 102.359C202.586 102.005 201.832 101.447 201.107 100.622C200.4 99.821 199.81 98.7936 199.365 97.5391C198.597 95.3689 198.495 93.1892 199.033 90.9791C199.57 88.7689 200.641 86.7823 202.21 85.0106C203.782 83.2481 205.733 81.7949 208.03 80.6824C210.535 79.4555 212.985 78.7734 215.334 78.5909C217.691 78.4053 219.79 78.6516 221.625 79.3207C220.865 82.3001 220.099 85.2612 219.363 88.2524C217.985 87.7099 216.521 87.507 214.995 87.6247C213.469 87.7425 211.989 88.1329 210.602 88.8196C208.646 89.7598 207.903 90.8062 208.284 91.9697C208.481 92.5283 208.929 92.7718 209.598 92.7101C210.276 92.6758 211.526 92.3881 213.313 91.9304C213.67 91.8039 213.94 91.7497 214.133 91.7122C214.989 91.481 215.712 91.3077 216.312 91.1674C216.918 91.0453 217.657 90.9178 218.534 90.8029C219.414 90.6973 220.179 90.643 220.822 90.6831C221.465 90.7232 222.181 90.8511 222.938 91.0366C223.701 91.2404 224.373 91.5381 224.94 91.9454C225.508 92.3526 226.04 92.8956 226.579 93.6014C227.099 94.3137 227.548 95.1441 227.892 96.1148C228.498 97.8271 228.705 99.547 228.506 101.256C228.313 102.983 227.77 104.567 226.881 106.046C225.992 107.525 224.83 108.875 223.421 110.136C222.005 111.38 220.364 112.455 218.523 113.344C216.019 114.571 213.347 115.383 210.489 115.787C207.637 116.21 205.331 116.047 203.59 115.293L203.639 115.317L203.671 115.347ZM242.265 101.64C238.584 91.2464 234.922 80.8467 231.254 70.4287C236.12 68.211 241.015 66.0756 245.914 63.9801C249.365 62.5111 252.267 62.1738 254.596 62.9259C256.921 63.6687 258.587 65.4595 259.579 68.2616C260.108 69.7541 260.187 71.2306 259.823 72.6785C259.453 74.1081 258.848 75.3117 257.998 76.2617C259.595 76.3454 261.043 76.8221 262.344 77.701C263.645 78.5799 264.592 79.8833 265.198 81.5957C266.193 84.4069 266.047 86.963 264.752 89.2765C263.457 91.59 261.071 93.4446 257.621 94.9137C252.474 97.0968 247.347 99.3348 242.25 101.655L242.243 101.637L242.265 101.64ZM244.658 78.2547C246.134 77.6186 247.592 76.9889 249.068 76.3528C249.861 75.9999 250.435 75.5805 250.738 75.0401C251.042 74.4998 251.105 73.9209 250.875 73.2708C250.645 72.6206 250.253 72.2132 249.7 72.0484C249.146 71.8837 248.472 71.9886 247.645 72.3329C246.169 72.969 244.711 73.5987 243.234 74.2348L244.658 78.2547ZM247.18 85.3789L248.653 89.5362C250.342 88.8038 252.05 88.065 253.756 87.3477C254.522 87.0353 255.051 86.5798 255.349 86.0211C255.646 85.4625 255.684 84.8718 255.457 84.2308C255.23 83.5898 254.835 83.1732 254.275 82.9902C253.709 82.7888 253.046 82.8689 252.281 83.1813C250.584 83.8953 248.876 84.6341 247.177 85.3697L247.18 85.3789ZM259.916 58.2906C267.657 55.2814 275.469 52.4429 283.38 49.9098L286.304 58.1694C281.656 59.661 277.057 61.2377 272.473 62.9124L273.608 66.1174C277.362 64.7471 281.141 63.45 284.936 62.1988L287.783 70.2386C283.988 71.4899 280.215 72.8052 276.455 74.1572L277.674 77.6002C282.262 75.9346 286.857 74.3488 291.505 72.8572L294.43 81.1168C286.526 83.6682 278.704 86.4793 270.966 89.4977C267.286 79.1045 263.624 68.7048 259.955 58.2868L259.912 58.2815L259.916 58.2906ZM294.045 76.7394C294.805 73.76 295.565 70.7806 296.314 67.826C298.156 68.7193 300.066 69.2488 302.037 69.4268C304.008 69.6048 305.813 69.4603 307.45 69.0147C308.578 68.7077 309.42 68.317 309.946 67.8217C310.472 67.3263 310.627 66.7764 310.407 66.1537C310.187 65.5311 309.672 65.1567 308.862 65.0828C308.052 65.0089 306.44 65.0853 304 65.3309C303.436 65.3968 303.024 65.4291 302.702 65.4506C301.619 65.5662 300.611 65.6343 299.707 65.6144C298.794 65.6285 297.818 65.5209 296.757 65.3196C295.695 65.1183 294.755 64.7919 293.954 64.3645C293.143 63.9096 292.359 63.2698 291.615 62.3897C290.885 61.5246 290.282 60.4605 289.847 59.2335C289.079 57.0633 289.013 54.9844 289.615 52.9574C290.224 50.9487 291.385 49.2185 293.074 47.7856C294.767 46.3619 296.856 45.3025 299.313 44.6387C301.996 43.9153 304.611 43.7002 307.122 43.9757C309.642 44.2478 311.88 44.8879 313.829 45.8775C312.942 48.4998 312.056 51.1221 311.194 53.7562C309.738 52.9939 308.183 52.5345 306.56 52.3776C304.934 52.2116 303.356 52.3273 301.872 52.7392C299.783 53.3039 298.974 54.1672 299.356 55.3307C299.553 55.8893 300.023 56.1969 300.734 56.2542C301.446 56.3115 302.782 56.271 304.683 56.1339C305.069 56.0898 305.352 56.0722 305.558 56.0714C306.47 55.9958 307.244 55.969 307.883 55.9385C308.522 55.9081 309.319 55.9454 310.254 55.9954C311.19 56.0454 312.013 56.1559 312.698 56.3151C313.384 56.4743 314.141 56.7212 314.953 57.0623C315.765 57.4035 316.473 57.8019 317.066 58.2824C317.659 58.7629 318.224 59.3975 318.782 60.1583C319.322 60.9255 319.784 61.7925 320.131 62.7723C320.737 64.4847 320.915 66.1221 320.657 67.6664C320.406 69.2289 319.795 70.62 318.806 71.8155C317.826 73.0384 316.557 74.0854 315.021 74.99C313.485 75.8946 311.725 76.6313 309.751 77.1447C307.068 77.868 304.234 78.2224 301.223 78.1961C298.21 78.1605 295.797 77.6958 293.987 76.7497L294.024 76.7367L294.045 76.7394ZM346.225 45.247C343.039 45.5711 339.883 45.9469 336.74 46.3901C339.447 54.0362 342.155 61.6823 344.841 69.3257C341.311 69.813 337.819 70.3795 334.338 71.0042C331.631 63.3581 328.923 55.712 326.237 48.0686C323.136 48.6308 320.082 49.2382 317.017 49.9011L314.092 41.6415C323.653 39.5752 333.385 37.9942 343.309 36.9841L346.227 45.2254L346.216 45.2502L346.225 45.247ZM57.5883 197.239C56.9449 199.033 57.1004 201.307 58.0666 204.036C59.0329 206.765 60.396 208.838 62.1711 210.239C63.9495 211.65 65.816 212.174 67.7925 211.814C69.3338 211.536 70.4364 210.806 71.11 209.65C71.802 208.488 71.9663 207.059 71.6274 205.345C75.8222 205.745 79.9969 206.06 84.1333 206.296C84.1968 210.261 83.1885 213.617 81.062 216.349C78.9505 219.065 75.7189 220.889 71.337 221.678C68.622 222.166 65.9157 222.124 63.2182 221.554C60.5298 220.981 58.033 219.959 55.7807 218.52C53.5193 217.085 51.5055 215.242 49.7308 213.026C47.9562 210.811 46.6013 208.353 45.6513 205.67C44.7012 202.987 44.2948 200.442 44.4438 198.008C44.5777 195.591 45.1993 193.443 46.2902 191.573C47.3844 189.712 48.9479 188.128 50.978 186.842C53.0017 185.538 55.3804 184.655 58.1046 184.164C62.4866 183.375 66.4424 183.654 70.0259 185.095C73.6095 186.537 76.6477 188.913 79.1781 192.273C75.8589 194.345 72.5077 196.356 69.1059 198.282C68.2742 196.691 67.1857 195.51 65.8279 194.733C64.4518 193.963 63.012 193.742 61.4857 194.004C59.5276 194.357 58.2069 195.433 57.5635 197.227L57.5883 197.239ZM100.515 173.866C104.366 172.596 108.221 171.251 112.029 169.861C116.316 181.967 120.581 194.07 124.849 206.182C121.041 207.571 117.179 208.898 113.335 210.187L108.549 196.671C104.955 197.851 101.33 199.001 97.688 200.074L102.474 213.59C98.5814 214.741 94.6353 215.829 90.6876 216.825C86.401 204.72 82.1359 192.617 77.8741 180.523C81.8218 179.527 85.7614 178.421 89.6605 177.287L94.3265 190.464C97.9626 189.403 101.588 188.254 105.188 187.061L100.515 173.866ZM127.272 195.668C124.765 193.392 122.863 190.438 121.595 186.857C120.327 183.277 119.965 179.778 120.452 176.349C120.961 172.923 122.304 169.871 124.465 167.178C126.626 164.486 129.46 162.411 132.935 160.954C136.41 159.497 139.764 158.979 143.061 159.408C146.328 159.839 149.208 161.127 151.686 163.321C154.165 165.514 156.037 168.386 157.308 171.975C158.579 175.565 158.961 179.119 158.506 182.639C158.027 186.148 156.726 189.319 154.607 192.13C152.482 194.923 149.677 197.081 146.202 198.538C142.727 199.995 139.351 200.449 136.021 199.928C132.718 199.397 129.796 197.989 127.289 195.713L127.276 195.677L127.272 195.668ZM146.582 184.234C147.19 182.164 147.022 179.709 146.043 176.943C145.063 174.178 143.712 172.255 141.977 171.169C140.25 170.08 138.382 169.959 136.417 170.788C134.443 171.621 133.142 173.072 132.528 175.123C131.92 177.193 132.075 179.612 133.054 182.377C134.034 185.143 135.391 187.084 137.127 188.169C138.86 189.277 140.728 189.398 142.702 188.596C144.676 187.763 145.971 186.295 146.579 184.225L146.585 184.243L146.582 184.234ZM170.043 158.428C169.52 160.561 169.733 163 170.696 165.719C171.66 168.439 172.968 170.356 174.626 171.428C176.284 172.5 178.002 172.603 179.803 171.749C181.205 171.077 182.194 170.026 182.777 168.614C183.378 167.196 183.487 165.611 183.132 163.851C187.003 163.336 190.873 162.79 194.733 162.247C194.888 166.469 194.035 170.264 192.139 173.646C190.261 177.022 187.324 179.679 183.344 181.604C180.876 182.787 178.409 183.423 175.936 183.485C173.462 183.547 171.182 183.108 169.104 182.163C167.012 181.204 165.137 179.755 163.47 177.842C161.792 175.901 160.496 173.608 159.542 170.916C158.589 168.224 158.134 165.541 158.179 162.814C158.206 160.095 158.695 157.572 159.611 155.207C160.527 152.843 161.892 150.7 163.686 148.746C165.479 146.792 167.615 145.221 170.092 144.035C174.072 142.11 177.733 141.556 181.09 142.356C184.446 143.157 187.329 145.093 189.768 148.197C186.731 151.066 183.678 153.919 180.604 156.77C179.795 155.243 178.755 154.199 177.498 153.707C176.216 153.202 174.886 153.292 173.496 153.938C171.717 154.795 170.542 156.283 170.018 158.416L170.037 158.41L170.043 158.428ZM198.983 163.298C196.527 161.169 194.658 158.306 193.384 154.708C192.109 151.109 191.718 147.527 192.156 143.961C192.617 140.397 193.888 137.144 195.965 134.214C198.042 131.283 200.797 128.988 204.188 127.293C207.585 125.616 210.878 124.924 214.13 125.226C217.354 125.537 220.215 126.771 222.67 128.9C225.133 131.047 227.002 133.91 228.27 137.49C229.538 141.071 229.929 144.652 229.491 148.218C229.03 151.782 227.752 155.017 225.669 157.929C223.586 160.841 220.83 163.136 217.439 164.831C214.042 166.508 210.75 167.2 207.498 166.899C204.28 166.606 201.419 165.372 198.97 163.261L198.983 163.298ZM217.751 150.335C218.33 148.182 218.162 145.727 217.182 142.962C216.203 140.197 214.859 138.292 213.152 137.289C211.445 136.255 209.613 136.234 207.69 137.183C205.758 138.135 204.499 139.704 203.921 141.856C203.342 144.009 203.517 146.482 204.496 149.248C205.475 152.013 206.82 153.917 208.526 154.921C210.226 155.937 212.059 155.957 213.982 155.009C215.913 154.057 217.179 152.506 217.758 150.353L217.751 150.335ZM237.764 154.224C233.477 142.118 229.212 130.015 224.944 117.903C228.616 116.129 232.325 114.372 236.02 112.662C239.172 121.562 242.302 130.46 245.435 139.367C250.27 137.12 255.09 134.918 259.954 132.753L263.359 142.367C254.774 146.17 246.251 150.146 237.767 154.233L237.764 154.224ZM264.296 100.135C268.663 98.341 273.046 96.5933 277.445 94.922C285.957 105.418 294.471 115.975 303.031 126.609C299.115 127.954 295.242 129.367 291.361 130.813C290.042 129.127 288.742 127.464 287.422 125.777C283.454 127.296 279.486 128.876 275.553 130.496C275.602 132.673 275.642 134.854 275.691 137.032C271.978 138.573 268.284 140.17 264.615 141.778C264.494 127.837 264.399 113.938 264.317 100.107L264.287 100.138L264.296 100.135ZM275.138 110.249C275.196 113.588 275.263 116.923 275.303 120.269C277.263 119.482 279.234 118.701 281.2 117.933C279.174 115.384 277.146 112.804 275.119 110.255L275.138 110.249ZM321.76 91.5447C318.231 92.413 314.74 93.3605 311.235 94.3543C314.387 103.255 317.517 112.153 320.65 121.06C316.745 122.175 312.841 123.382 308.984 124.635C305.832 115.734 302.702 106.836 299.569 97.929C296.124 99.0354 292.711 100.203 289.327 101.422L285.923 91.8067C296.562 88.0394 307.368 84.6867 318.374 81.9541L321.779 91.569L321.772 91.5507L321.76 91.5447ZM321.808 81.1091C331.261 78.885 340.894 77.0815 350.71 75.8523L354.108 85.4488C348.35 86.1685 342.652 87.0838 337.027 88.1789L338.347 91.9058C342.961 91.014 347.626 90.2381 352.33 89.6027L355.644 98.9612C350.946 99.6149 346.281 100.391 341.67 101.292L343.087 105.293C348.718 104.217 354.417 103.301 360.168 102.563L363.566 112.16C353.763 113.395 344.127 115.189 334.665 117.417C330.378 105.311 326.113 93.2082 321.851 81.1144L321.814 81.1274L321.808 81.1091Z"/>
</mask>
<path d="M43.3848 146.847C46.2071 146.342 49.0288 145.807 51.8251 145.229C55.0543 150.475 58.2829 155.69 61.5023 160.908C60.8242 155.12 60.1553 149.328 59.4707 143.521C62.9419 142.694 66.4277 141.82 69.8568 140.874C70.7532 152.026 71.6524 163.157 72.5196 174.227C69.2813 175.013 65.996 175.753 62.722 176.439C59.3316 171.116 55.9536 165.799 52.5567 160.458C53.1103 166.332 53.6639 172.206 54.2202 178.058C50.9105 178.643 47.5657 179.157 44.2107 179.614C37.6476 169.613 31.0559 159.56 24.4788 149.461C28.2011 149.081 31.9158 148.62 35.583 148.084C38.8316 153.385 42.0711 158.689 45.3013 163.996C44.6708 158.284 44.0402 152.571 43.3939 146.844L43.3848 146.847ZM79.537 164.425C77.3252 162.343 75.6882 159.759 74.5955 156.673C73.5028 153.588 73.2028 150.643 73.6831 147.835C74.1634 145.027 75.3881 142.574 77.3017 140.464C79.2492 138.362 81.7509 136.806 84.8289 135.83C87.9097 134.832 90.8724 134.607 93.757 135.152C96.6416 135.697 99.152 136.962 101.322 138.924C103.491 140.887 105.112 143.425 106.198 146.493C107.285 149.56 107.611 152.578 107.176 155.514C106.741 158.45 105.561 161.032 103.684 163.243C101.778 165.463 99.2991 167.083 96.2276 168.078C93.1469 169.076 90.155 169.218 87.2282 168.555C84.3014 167.891 81.7488 166.507 79.537 164.425ZM96.679 156.16C97.2411 154.456 97.102 152.403 96.2622 150.032C95.4223 147.66 94.232 145.959 92.7377 144.942C91.2158 143.935 89.5883 143.708 87.8401 144.275C86.0952 144.852 84.9379 145.952 84.3758 147.656C83.804 149.332 83.9399 151.376 84.7862 153.766C85.6325 156.156 86.8163 157.839 88.3269 158.901C89.8553 159.926 91.4925 160.181 93.2374 159.605C94.9823 159.028 96.1267 157.891 96.6888 156.187L96.6823 156.169L96.679 156.16ZM120.802 147.69L124.194 157.268C120.953 158.57 117.714 159.851 114.429 161.087C110.749 150.693 107.087 140.294 103.418 129.876C108.12 128.097 112.806 126.243 117.449 124.299C121.413 122.649 124.828 122.274 127.738 123.212C130.642 124.131 132.689 126.302 133.892 129.699C134.638 131.805 134.814 133.876 134.409 135.906C134.003 137.935 133.069 139.781 131.596 141.446C135.123 144.185 138.644 146.906 142.138 149.636C138.479 151.272 134.797 152.844 131.108 154.397C128.201 151.954 125.275 149.517 122.362 147.055C121.846 147.259 121.321 147.465 120.815 147.696L120.797 147.702L120.802 147.69ZM118.095 140.044C119.346 139.529 120.6 139.023 121.851 138.508C123.084 137.999 123.89 137.363 124.313 136.605C124.736 135.848 124.785 135.026 124.467 134.129C124.149 133.232 123.588 132.606 122.805 132.347C122.041 132.082 121.028 132.193 119.792 132.693C118.541 133.208 117.287 133.714 116.036 134.229L118.095 140.044ZM144.132 148.745C140.452 138.351 136.79 127.952 133.122 117.534C136.321 116.112 139.494 114.649 142.699 113.184C145.406 120.83 148.114 128.476 150.8 136.12C154.94 134.211 159.091 132.246 163.208 130.273L166.133 138.532C158.852 142.028 151.527 145.456 144.169 148.732L144.132 148.745ZM168.851 137.209C165.171 126.816 161.502 116.398 157.84 105.998C161.708 104.134 165.568 102.252 169.423 100.351C174.316 97.9485 178.636 97.4494 182.397 98.869C186.15 100.292 188.891 103.402 190.572 108.207C192.271 113.005 192.218 117.486 190.425 121.655C188.651 125.818 185.317 129.132 180.405 131.541C176.551 133.442 172.69 135.324 168.823 137.188L168.848 137.2L168.851 137.209ZM175.202 124.449C175.982 124.059 176.75 123.695 177.533 123.314C179.596 122.295 180.929 120.875 181.535 119.033C182.144 117.199 182.041 115.133 181.237 112.862C180.433 110.591 179.261 109.058 177.728 108.282C176.195 107.506 174.402 107.626 172.332 108.626C171.553 109.016 170.784 109.381 170.001 109.761L175.202 124.449ZM194.185 89.8104C194.518 93.9276 194.356 99.4676 193.899 102.051C193.155 102.541 192.407 103.022 191.681 103.506C191.684 100.486 191.177 95.4408 190.525 92.0854C191.738 91.3466 192.95 90.5772 194.191 89.8287L194.185 89.8104ZM203.671 115.347C204.34 112.111 205.016 108.894 205.67 105.674C207.435 106.347 209.254 106.62 211.117 106.496C212.981 106.372 214.679 105.925 216.212 105.187C217.27 104.678 218.05 104.114 218.53 103.49C219.005 102.879 219.147 102.262 218.923 101.63C218.7 100.998 218.218 100.715 217.456 100.779C216.695 100.842 215.183 101.202 212.883 101.842C212.354 102.008 211.962 102.096 211.662 102.181C210.641 102.471 209.692 102.704 208.843 102.839C207.979 102.991 207.054 103.03 206.038 102.957C205.032 102.911 204.137 102.713 203.362 102.359C202.586 102.005 201.832 101.447 201.107 100.622C200.4 99.821 199.81 98.7936 199.365 97.5391C198.597 95.3689 198.495 93.1892 199.033 90.9791C199.57 88.7689 200.641 86.7823 202.21 85.0106C203.782 83.2481 205.733 81.7949 208.03 80.6824C210.535 79.4555 212.985 78.7734 215.334 78.5909C217.691 78.4053 219.79 78.6516 221.625 79.3207C220.865 82.3001 220.099 85.2612 219.363 88.2524C217.985 87.7099 216.521 87.507 214.995 87.6247C213.469 87.7425 211.989 88.1329 210.602 88.8196C208.646 89.7598 207.903 90.8062 208.284 91.9697C208.481 92.5283 208.929 92.7718 209.598 92.7101C210.276 92.6758 211.526 92.3881 213.313 91.9304C213.67 91.8039 213.94 91.7497 214.133 91.7122C214.989 91.481 215.712 91.3077 216.312 91.1674C216.918 91.0453 217.657 90.9178 218.534 90.8029C219.414 90.6973 220.179 90.643 220.822 90.6831C221.465 90.7232 222.181 90.8511 222.938 91.0366C223.701 91.2404 224.373 91.5381 224.94 91.9454C225.508 92.3526 226.04 92.8956 226.579 93.6014C227.099 94.3137 227.548 95.1441 227.892 96.1148C228.498 97.8271 228.705 99.547 228.506 101.256C228.313 102.983 227.77 104.567 226.881 106.046C225.992 107.525 224.83 108.875 223.421 110.136C222.005 111.38 220.364 112.455 218.523 113.344C216.019 114.571 213.347 115.383 210.489 115.787C207.637 116.21 205.331 116.047 203.59 115.293L203.639 115.317L203.671 115.347ZM242.265 101.64C238.584 91.2464 234.922 80.8467 231.254 70.4287C236.12 68.211 241.015 66.0756 245.914 63.9801C249.365 62.5111 252.267 62.1738 254.596 62.9259C256.921 63.6687 258.587 65.4595 259.579 68.2616C260.108 69.7541 260.187 71.2306 259.823 72.6785C259.453 74.1081 258.848 75.3117 257.998 76.2617C259.595 76.3454 261.043 76.8221 262.344 77.701C263.645 78.5799 264.592 79.8833 265.198 81.5957C266.193 84.4069 266.047 86.963 264.752 89.2765C263.457 91.59 261.071 93.4446 257.621 94.9137C252.474 97.0968 247.347 99.3348 242.25 101.655L242.243 101.637L242.265 101.64ZM244.658 78.2547C246.134 77.6186 247.592 76.9889 249.068 76.3528C249.861 75.9999 250.435 75.5805 250.738 75.0401C251.042 74.4998 251.105 73.9209 250.875 73.2708C250.645 72.6206 250.253 72.2132 249.7 72.0484C249.146 71.8837 248.472 71.9886 247.645 72.3329C246.169 72.969 244.711 73.5987 243.234 74.2348L244.658 78.2547ZM247.18 85.3789L248.653 89.5362C250.342 88.8038 252.05 88.065 253.756 87.3477C254.522 87.0353 255.051 86.5798 255.349 86.0211C255.646 85.4625 255.684 84.8718 255.457 84.2308C255.23 83.5898 254.835 83.1732 254.275 82.9902C253.709 82.7888 253.046 82.8689 252.281 83.1813C250.584 83.8953 248.876 84.6341 247.177 85.3697L247.18 85.3789ZM259.916 58.2906C267.657 55.2814 275.469 52.4429 283.38 49.9098L286.304 58.1694C281.656 59.661 277.057 61.2377 272.473 62.9124L273.608 66.1174C277.362 64.7471 281.141 63.45 284.936 62.1988L287.783 70.2386C283.988 71.4899 280.215 72.8052 276.455 74.1572L277.674 77.6002C282.262 75.9346 286.857 74.3488 291.505 72.8572L294.43 81.1168C286.526 83.6682 278.704 86.4793 270.966 89.4977C267.286 79.1045 263.624 68.7048 259.955 58.2868L259.912 58.2815L259.916 58.2906ZM294.045 76.7394C294.805 73.76 295.565 70.7806 296.314 67.826C298.156 68.7193 300.066 69.2488 302.037 69.4268C304.008 69.6048 305.813 69.4603 307.45 69.0147C308.578 68.7077 309.42 68.317 309.946 67.8217C310.472 67.3263 310.627 66.7764 310.407 66.1537C310.187 65.5311 309.672 65.1567 308.862 65.0828C308.052 65.0089 306.44 65.0853 304 65.3309C303.436 65.3968 303.024 65.4291 302.702 65.4506C301.619 65.5662 300.611 65.6343 299.707 65.6144C298.794 65.6285 297.818 65.5209 296.757 65.3196C295.695 65.1183 294.755 64.7919 293.954 64.3645C293.143 63.9096 292.359 63.2698 291.615 62.3897C290.885 61.5246 290.282 60.4605 289.847 59.2335C289.079 57.0633 289.013 54.9844 289.615 52.9574C290.224 50.9487 291.385 49.2185 293.074 47.7856C294.767 46.3619 296.856 45.3025 299.313 44.6387C301.996 43.9153 304.611 43.7002 307.122 43.9757C309.642 44.2478 311.88 44.8879 313.829 45.8775C312.942 48.4998 312.056 51.1221 311.194 53.7562C309.738 52.9939 308.183 52.5345 306.56 52.3776C304.934 52.2116 303.356 52.3273 301.872 52.7392C299.783 53.3039 298.974 54.1672 299.356 55.3307C299.553 55.8893 300.023 56.1969 300.734 56.2542C301.446 56.3115 302.782 56.271 304.683 56.1339C305.069 56.0898 305.352 56.0722 305.558 56.0714C306.47 55.9958 307.244 55.969 307.883 55.9385C308.522 55.9081 309.319 55.9454 310.254 55.9954C311.19 56.0454 312.013 56.1559 312.698 56.3151C313.384 56.4743 314.141 56.7212 314.953 57.0623C315.765 57.4035 316.473 57.8019 317.066 58.2824C317.659 58.7629 318.224 59.3975 318.782 60.1583C319.322 60.9255 319.784 61.7925 320.131 62.7723C320.737 64.4847 320.915 66.1221 320.657 67.6664C320.406 69.2289 319.795 70.62 318.806 71.8155C317.826 73.0384 316.557 74.0854 315.021 74.99C313.485 75.8946 311.725 76.6313 309.751 77.1447C307.068 77.868 304.234 78.2224 301.223 78.1961C298.21 78.1605 295.797 77.6958 293.987 76.7497L294.024 76.7367L294.045 76.7394ZM346.225 45.247C343.039 45.5711 339.883 45.9469 336.74 46.3901C339.447 54.0362 342.155 61.6823 344.841 69.3257C341.311 69.813 337.819 70.3795 334.338 71.0042C331.631 63.3581 328.923 55.712 326.237 48.0686C323.136 48.6308 320.082 49.2382 317.017 49.9011L314.092 41.6415C323.653 39.5752 333.385 37.9942 343.309 36.9841L346.227 45.2254L346.216 45.2502L346.225 45.247ZM57.5883 197.239C56.9449 199.033 57.1004 201.307 58.0666 204.036C59.0329 206.765 60.396 208.838 62.1711 210.239C63.9495 211.65 65.816 212.174 67.7925 211.814C69.3338 211.536 70.4364 210.806 71.11 209.65C71.802 208.488 71.9663 207.059 71.6274 205.345C75.8222 205.745 79.9969 206.06 84.1333 206.296C84.1968 210.261 83.1885 213.617 81.062 216.349C78.9505 219.065 75.7189 220.889 71.337 221.678C68.622 222.166 65.9157 222.124 63.2182 221.554C60.5298 220.981 58.033 219.959 55.7807 218.52C53.5193 217.085 51.5055 215.242 49.7308 213.026C47.9562 210.811 46.6013 208.353 45.6513 205.67C44.7012 202.987 44.2948 200.442 44.4438 198.008C44.5777 195.591 45.1993 193.443 46.2902 191.573C47.3844 189.712 48.9479 188.128 50.978 186.842C53.0017 185.538 55.3804 184.655 58.1046 184.164C62.4866 183.375 66.4424 183.654 70.0259 185.095C73.6095 186.537 76.6477 188.913 79.1781 192.273C75.8589 194.345 72.5077 196.356 69.1059 198.282C68.2742 196.691 67.1857 195.51 65.8279 194.733C64.4518 193.963 63.012 193.742 61.4857 194.004C59.5276 194.357 58.2069 195.433 57.5635 197.227L57.5883 197.239ZM100.515 173.866C104.366 172.596 108.221 171.251 112.029 169.861C116.316 181.967 120.581 194.07 124.849 206.182C121.041 207.571 117.179 208.898 113.335 210.187L108.549 196.671C104.955 197.851 101.33 199.001 97.688 200.074L102.474 213.59C98.5814 214.741 94.6353 215.829 90.6876 216.825C86.401 204.72 82.1359 192.617 77.8741 180.523C81.8218 179.527 85.7614 178.421 89.6605 177.287L94.3265 190.464C97.9626 189.403 101.588 188.254 105.188 187.061L100.515 173.866ZM127.272 195.668C124.765 193.392 122.863 190.438 121.595 186.857C120.327 183.277 119.965 179.778 120.452 176.349C120.961 172.923 122.304 169.871 124.465 167.178C126.626 164.486 129.46 162.411 132.935 160.954C136.41 159.497 139.764 158.979 143.061 159.408C146.328 159.839 149.208 161.127 151.686 163.321C154.165 165.514 156.037 168.386 157.308 171.975C158.579 175.565 158.961 179.119 158.506 182.639C158.027 186.148 156.726 189.319 154.607 192.13C152.482 194.923 149.677 197.081 146.202 198.538C142.727 199.995 139.351 200.449 136.021 199.928C132.718 199.397 129.796 197.989 127.289 195.713L127.276 195.677L127.272 195.668ZM146.582 184.234C147.19 182.164 147.022 179.709 146.043 176.943C145.063 174.178 143.712 172.255 141.977 171.169C140.25 170.08 138.382 169.959 136.417 170.788C134.443 171.621 133.142 173.072 132.528 175.123C131.92 177.193 132.075 179.612 133.054 182.377C134.034 185.143 135.391 187.084 137.127 188.169C138.86 189.277 140.728 189.398 142.702 188.596C144.676 187.763 145.971 186.295 146.579 184.225L146.585 184.243L146.582 184.234ZM170.043 158.428C169.52 160.561 169.733 163 170.696 165.719C171.66 168.439 172.968 170.356 174.626 171.428C176.284 172.5 178.002 172.603 179.803 171.749C181.205 171.077 182.194 170.026 182.777 168.614C183.378 167.196 183.487 165.611 183.132 163.851C187.003 163.336 190.873 162.79 194.733 162.247C194.888 166.469 194.035 170.264 192.139 173.646C190.261 177.022 187.324 179.679 183.344 181.604C180.876 182.787 178.409 183.423 175.936 183.485C173.462 183.547 171.182 183.108 169.104 182.163C167.012 181.204 165.137 179.755 163.47 177.842C161.792 175.901 160.496 173.608 159.542 170.916C158.589 168.224 158.134 165.541 158.179 162.814C158.206 160.095 158.695 157.572 159.611 155.207C160.527 152.843 161.892 150.7 163.686 148.746C165.479 146.792 167.615 145.221 170.092 144.035C174.072 142.11 177.733 141.556 181.09 142.356C184.446 143.157 187.329 145.093 189.768 148.197C186.731 151.066 183.678 153.919 180.604 156.77C179.795 155.243 178.755 154.199 177.498 153.707C176.216 153.202 174.886 153.292 173.496 153.938C171.717 154.795 170.542 156.283 170.018 158.416L170.037 158.41L170.043 158.428ZM198.983 163.298C196.527 161.169 194.658 158.306 193.384 154.708C192.109 151.109 191.718 147.527 192.156 143.961C192.617 140.397 193.888 137.144 195.965 134.214C198.042 131.283 200.797 128.988 204.188 127.293C207.585 125.616 210.878 124.924 214.13 125.226C217.354 125.537 220.215 126.771 222.67 128.9C225.133 131.047 227.002 133.91 228.27 137.49C229.538 141.071 229.929 144.652 229.491 148.218C229.03 151.782 227.752 155.017 225.669 157.929C223.586 160.841 220.83 163.136 217.439 164.831C214.042 166.508 210.75 167.2 207.498 166.899C204.28 166.606 201.419 165.372 198.97 163.261L198.983 163.298ZM217.751 150.335C218.33 148.182 218.162 145.727 217.182 142.962C216.203 140.197 214.859 138.292 213.152 137.289C211.445 136.255 209.613 136.234 207.69 137.183C205.758 138.135 204.499 139.704 203.921 141.856C203.342 144.009 203.517 146.482 204.496 149.248C205.475 152.013 206.82 153.917 208.526 154.921C210.226 155.937 212.059 155.957 213.982 155.009C215.913 154.057 217.179 152.506 217.758 150.353L217.751 150.335ZM237.764 154.224C233.477 142.118 229.212 130.015 224.944 117.903C228.616 116.129 232.325 114.372 236.02 112.662C239.172 121.562 242.302 130.46 245.435 139.367C250.27 137.12 255.09 134.918 259.954 132.753L263.359 142.367C254.774 146.17 246.251 150.146 237.767 154.233L237.764 154.224ZM264.296 100.135C268.663 98.341 273.046 96.5933 277.445 94.922C285.957 105.418 294.471 115.975 303.031 126.609C299.115 127.954 295.242 129.367 291.361 130.813C290.042 129.127 288.742 127.464 287.422 125.777C283.454 127.296 279.486 128.876 275.553 130.496C275.602 132.673 275.642 134.854 275.691 137.032C271.978 138.573 268.284 140.17 264.615 141.778C264.494 127.837 264.399 113.938 264.317 100.107L264.287 100.138L264.296 100.135ZM275.138 110.249C275.196 113.588 275.263 116.923 275.303 120.269C277.263 119.482 279.234 118.701 281.2 117.933C279.174 115.384 277.146 112.804 275.119 110.255L275.138 110.249ZM321.76 91.5447C318.231 92.413 314.74 93.3605 311.235 94.3543C314.387 103.255 317.517 112.153 320.65 121.06C316.745 122.175 312.841 123.382 308.984 124.635C305.832 115.734 302.702 106.836 299.569 97.929C296.124 99.0354 292.711 100.203 289.327 101.422L285.923 91.8067C296.562 88.0394 307.368 84.6867 318.374 81.9541L321.779 91.569L321.772 91.5507L321.76 91.5447ZM321.808 81.1091C331.261 78.885 340.894 77.0815 350.71 75.8523L354.108 85.4488C348.35 86.1685 342.652 87.0838 337.027 88.1789L338.347 91.9058C342.961 91.014 347.626 90.2381 352.33 89.6027L355.644 98.9612C350.946 99.6149 346.281 100.391 341.67 101.292L343.087 105.293C348.718 104.217 354.417 103.301 360.168 102.563L363.566 112.16C353.763 113.395 344.127 115.189 334.665 117.417C330.378 105.311 326.113 93.2082 321.851 81.1144L321.814 81.1274L321.808 81.1091Z" fill="#52C9E8" stroke="black" stroke-width="2" mask="url(#path-3-inside-1_888_32206)"/>
</g>
</svg>
